<?xml version="1.0" encoding="UTF-8" standalone="no"?>
<svg
   xmlns:dc="http://purl.org/dc/elements/1.1/"
   xmlns:cc="http://creativecommons.org/ns#"
   xmlns:rdf="http://www.w3.org/1999/02/22-rdf-syntax-ns#"
   xmlns:svg="http://www.w3.org/2000/svg"
   xmlns="http://www.w3.org/2000/svg"
   xmlns:sodipodi="http://sodipodi.sourceforge.net/DTD/sodipodi-0.dtd"
   xmlns:inkscape="http://www.inkscape.org/namespaces/inkscape"
   aria-hidden="true"
   focusable="false"
   data-prefix="fas"
   data-icon="map-marker-alt"
   class="svg-inline--fa fa-map-marker-alt fa-w-12"
   role="img"
   viewBox="0 0 32 42.842548"
   version="1.1"
   id="svg4"
   sodipodi:docname="marker_storage20190525.svg"
   inkscape:version="0.92.1 r15371"
   inkscape:export-filename="C:\Users\敬之\BuggyHub\public\marker_storage.png"
   inkscape:export-xdpi="8"
   inkscape:export-ydpi="8"
   width="32"
   height="42.842548">
  <metadata
     id="metadata10">
    <rdf:RDF>
      <cc:Work
         rdf:about="">
        <dc:format>image/svg+xml</dc:format>
        <dc:type
           rdf:resource="http://purl.org/dc/dcmitype/StillImage" />
        <dc:title />
      </cc:Work>
    </rdf:RDF>
  </metadata>
  <defs
     id="defs8" />
  <sodipodi:namedview
     pagecolor="#ffffff"
     bordercolor="#666666"
     borderopacity="1"
     objecttolerance="10"
     gridtolerance="10"
     guidetolerance="10"
     inkscape:pageopacity="0"
     inkscape:pageshadow="2"
     inkscape:window-width="2160"
     inkscape:window-height="1346"
     id="namedview6"
     showgrid="false"
     inkscape:zoom="14.75"
     inkscape:cx="-15.627119"
     inkscape:cy="18.959118"
     inkscape:window-x="-11"
     inkscape:window-y="-11"
     inkscape:window-maximized="1"
     inkscape:current-layer="svg4"
     fit-margin-top="0"
     fit-margin-left="0"
     fit-margin-right="0"
     fit-margin-bottom="0" />
  <path
     style="fill:#d64036;fill-opacity:1;stroke-width:0.06473161"
     d="m 15.4156,42.734987 c -0.341382,-0.12088 -0.622474,-0.42968 -1.697104,-1.86441 -1.766254,-2.35812 -6.423843,-9.02459 -8.8661368,-12.69024 -4.30866829,-6.46689 -4.94346879,-8.11081 -4.84281669,-12.54128 0.031847,-1.40181 0.1023292,-2.09374 0.3116079,-3.05904 C 1.5472566,6.9245967 5.5922871,2.4786667 11.190223,0.6337367 c 1.217864,-0.40138 1.756973,-0.50838 2.977654,-0.59099 1.332595,-0.0902 4.059351,-0.0297 4.822504,0.10708 2.261088,0.4051 5.123183,1.74675 7.120476,3.33782 2.673827,2.13 4.655659,5.23264 5.461182,8.5496903 0.378326,1.55791 0.429533,2.04888 0.427925,4.10292 -0.0016,2.00591 -0.04546,2.42533 -0.395371,3.77801 -0.349122,1.34965 -1.080933,2.9696 -2.167898,4.79893 -1.880657,3.16508 -11.055957,16.27444 -12.397422,17.71301 -0.376699,0.40397 -1.008583,0.52259 -1.623673,0.30478 z m 1.924125,-20.1302 c 1.354253,-0.23151 2.330172,-0.74461 3.369315,-1.77149 0.898744,-0.88813 1.498523,-1.83656 1.84555,-2.91836 0.141845,-0.44219 0.207131,-2.70039 0.100892,-3.48981 -0.139421,-1.03598 -0.708156,-2.05466 -1.742332,-3.12077 -1.090591,-1.12427 -1.994537,-1.6893803 -3.055572,-1.9102303 -0.779217,-0.16219 -2.910484,-0.16219 -3.689701,0 -1.061035,0.22085 -1.964981,0.7859603 -3.055572,1.9102303 -0.982868,1.01321 -1.5755348,2.03868 -1.7305898,2.99436 -0.10421,0.64228 -0.08644,2.74081 0.02828,3.34041 0.1194,0.62404 0.6515558,1.73882 1.1385348,2.38503 0.881137,1.16925 2.259716,2.14592 3.55597,2.51926 0.823762,0.23726 2.068225,0.26087 3.235225,0.0614 z"
     id="path22"
     inkscape:connector-curvature="0" />
</svg>
