<?xml version="1.0" encoding="UTF-8" standalone="no"?>
<svg
   xmlns:dc="http://purl.org/dc/elements/1.1/"
   xmlns:cc="http://creativecommons.org/ns#"
   xmlns:rdf="http://www.w3.org/1999/02/22-rdf-syntax-ns#"
   xmlns:svg="http://www.w3.org/2000/svg"
   xmlns="http://www.w3.org/2000/svg"
   xmlns:sodipodi="http://sodipodi.sourceforge.net/DTD/sodipodi-0.dtd"
   xmlns:inkscape="http://www.inkscape.org/namespaces/inkscape"
   aria-hidden="true"
   focusable="false"
   data-prefix="fas"
   data-icon="user"
   class="svg-inline--fa fa-user fa-w-14"
   role="img"
   viewBox="0 0 448 512"
   version="1.1"
   id="svg4"
   sodipodi:docname="default_user20190605.svg"
   inkscape:version="0.92.1 r15371">
  <metadata
     id="metadata10">
    <rdf:RDF>
      <cc:Work
         rdf:about="">
        <dc:format>image/svg+xml</dc:format>
        <dc:type
           rdf:resource="http://purl.org/dc/dcmitype/StillImage" />
      </cc:Work>
    </rdf:RDF>
  </metadata>
  <defs
     id="defs8" />
  <sodipodi:namedview
     pagecolor="#ffffff"
     bordercolor="#666666"
     borderopacity="1"
     objecttolerance="10"
     gridtolerance="10"
     guidetolerance="10"
     inkscape:pageopacity="0"
     inkscape:pageshadow="2"
     inkscape:window-width="2160"
     inkscape:window-height="1346"
     id="namedview6"
     showgrid="false"
     inkscape:zoom="1.3037281"
     inkscape:cx="118.28043"
     inkscape:cy="282.98122"
     inkscape:window-x="-11"
     inkscape:window-y="-11"
     inkscape:window-maximized="1"
     inkscape:current-layer="svg4" />
  <g
     inkscape:groupmode="layer"
     id="layer1"
     inkscape:label="Layer 1">
    <rect
       style="fill:#ffffff;fill-opacity:1;stroke-width:1.10596335"
       id="rect4488"
       width="447.45761"
       height="512"
       x="7.752983e-007"
       y="1.7885773e-006" />
  </g>
  <path
     d="m 224,256 c 51.60482,0 93.42881,-41.82399 93.42881,-93.42881 0,-51.60482 -41.82399,-93.428815 -93.42881,-93.428815 -51.60482,0 -93.42881,41.823995 -93.42881,93.428815 C 130.57119,214.17601 172.39518,256 224,256 Z m 65.40017,23.3572 h -12.18954 c -16.20406,7.44511 -34.2329,11.67861 -53.21063,11.67861 -18.97773,0 -36.93358,-4.2335 -53.21063,-11.67861 h -12.18954 c -54.15951,0 -98.100253,43.94074 -98.100253,98.10025 v 30.36438 c 0,19.34268 15.693121,35.0358 35.035805,35.0358 H 352.46462 c 19.34268,0 35.0358,-15.69312 35.0358,-35.0358 v -30.36438 c 0,-54.15951 -43.94073,-98.10025 -98.10025,-98.10025 z"
     id="path2"
     inkscape:connector-curvature="0"
     style="fill:#c0c0c0;fill-opacity:1;stroke-width:0.72991258" />
</svg>
