<?xml version="1.0" encoding="UTF-8" standalone="no"?>
<svg
   xmlns:dc="http://purl.org/dc/elements/1.1/"
   xmlns:cc="http://creativecommons.org/ns#"
   xmlns:rdf="http://www.w3.org/1999/02/22-rdf-syntax-ns#"
   xmlns:svg="http://www.w3.org/2000/svg"
   xmlns="http://www.w3.org/2000/svg"
   xmlns:sodipodi="http://sodipodi.sourceforge.net/DTD/sodipodi-0.dtd"
   xmlns:inkscape="http://www.inkscape.org/namespaces/inkscape"
   aria-hidden="true"
   focusable="false"
   data-prefix="far"
   data-icon="user"
   class="svg-inline--fa fa-user fa-w-14"
   role="img"
   viewBox="0 0 448 512"
   version="1.1"
   id="svg4"
   sodipodi:docname="guest.svg"
   inkscape:version="0.92.1 r15371">
  <metadata
     id="metadata10">
    <rdf:RDF>
      <cc:Work
         rdf:about="">
        <dc:format>image/svg+xml</dc:format>
        <dc:type
           rdf:resource="http://purl.org/dc/dcmitype/StillImage" />
      </cc:Work>
    </rdf:RDF>
  </metadata>
  <defs
     id="defs8" />
  <sodipodi:namedview
     pagecolor="#ffffff"
     bordercolor="#666666"
     borderopacity="1"
     objecttolerance="10"
     gridtolerance="10"
     guidetolerance="10"
     inkscape:pageopacity="0"
     inkscape:pageshadow="2"
     inkscape:window-width="2880"
     inkscape:window-height="1675"
     id="namedview6"
     showgrid="false"
     inkscape:zoom="1.4142136"
     inkscape:cx="73.531026"
     inkscape:cy="423.25737"
     inkscape:window-x="-13"
     inkscape:window-y="-13"
     inkscape:window-maximized="1"
     inkscape:current-layer="svg4" />
  <rect
     style="fill:#ffffff;fill-opacity:1;stroke-width:1.10596335"
     id="rect4488"
     width="447.45761"
     height="512"
     x="-0.0029146671"
     y="0.0019215345" />
  <path
     d="m 293.08192,290.28932 c -20.96077,0 -31.03947,11.68544 -65.43852,11.68544 -34.39903,0 -44.40471,-11.68544 -65.43851,-11.68544 -54.19128,0 -98.157795,43.9665 -98.157795,98.15779 v 18.69672 c 0,19.35401 15.702327,35.05634 35.056361,35.05634 H 356.18337 c 19.35401,0 35.05634,-15.70233 35.05634,-35.05634 v -18.69672 c 0,-54.19129 -43.96652,-98.15779 -98.15779,-98.15779 z m 63.10145,116.85451 H 99.103456 v -18.69672 c 0,-34.76422 28.337214,-63.10145 63.101434,-63.10145 10.66297,0 27.97205,11.68546 65.43851,11.68546 37.75863,0 54.70251,-11.68546 65.43852,-11.68546 34.76422,0 63.10145,28.33723 63.10145,63.10145 z M 227.6434,278.60386 c 58.06209,0 105.16906,-47.10696 105.16906,-105.16904 0,-58.06208 -47.10697,-105.169054 -105.16906,-105.169054 -58.06208,0 -105.16904,47.106974 -105.16904,105.169054 0,58.06208 47.10696,105.16904 105.16904,105.16904 z m 0,-175.28175 c 38.63502,0 70.11271,31.47768 70.11271,70.11271 0,38.63502 -31.47769,70.1127 -70.11271,70.1127 -38.63501,0 -70.11269,-31.47768 -70.11269,-70.1127 0,-38.63503 31.47768,-70.11271 70.11269,-70.11271 z"
     id="path2"
     style="fill:#c0c0c0;fill-opacity:1;stroke-width:0.7303406"
     inkscape:connector-curvature="0" />
</svg>
